# xmcd
#
# Track frame offsets:
# 150
# 33894
# 56970
# 94552
# 119336
# 148195
#
# Disc length: 2514 seconds
#
#
# Revision: 0
# Processed by: cddbd v1.5.1PL0 Copyright (c) Steve Scherf et al.
# Submitted via: FreeRIP 2.942 
#
DISCID=5009d006
DTITLE=Varios - Woodstock 69 cd 1
DYEAR=1969
DGENRE=Rock
TTITLE0=Jimi Hendrix -Jam back at the house
TTITLE1=Jimi Hendrix - Izabella
TTITLE2=Jimi Hendrix - Get My Heart Back Together
TTITLE3=Jeferson Airplain - Saturday Afternon/ Won't I you try
TTITLE4=Jeferson Airplain -Eskimo Blue Ray
TTITLE5=Jeferson Airplain - Everything's Gonna be Alrigth
EXTD=
EXTT0=
EXTT1=
EXTT2=
EXTT3=
EXTT4=
EXTT5=
PLAYORDER=
